<?xml version="1.0" standalone="no"?>
<!DOCTYPE svg PUBLIC "-//W3C//DTD SVG 20010904//EN"
 "http://www.w3.org/TR/2001/REC-SVG-20010904/DTD/svg10.dtd">
<svg version="1.0" xmlns="http://www.w3.org/2000/svg"
 width="418.000000pt" height="418.000000pt" viewBox="0 0 418.000000 418.000000"
 preserveAspectRatio="xMidYMid meet">
<metadata>
Created by potrace 1.14, written by Peter Selinger 2001-2017
</metadata>
<g transform="translate(0.000000,418.000000) scale(0.100000,-0.100000)"
fill="#000000" stroke="none">
<path d="M1875 4163 c-175 -21 -397 -73 -426 -99 -39 -35 -31 -99 16 -130 25
-16 31 -15 153 14 193 47 270 56 477 56 204 -1 310 -14 490 -61 351 -91 702
-307 938 -577 249 -285 399 -603 463 -981 24 -138 24 -452 0 -590 -51 -301
-161 -573 -326 -807 -303 -429 -746 -705 -1275 -794 -138 -24 -452 -24 -590 0
-531 90 -971 364 -1276 795 -165 234 -274 504 -325 806 -24 138 -24 452 0 590
78 462 296 856 637 1152 100 87 116 112 105 158 -7 26 -51 55 -85 55 -48 0
-297 -237 -420 -400 -223 -296 -364 -647 -411 -1020 -13 -109 -13 -371 0 -480
40 -321 156 -641 327 -900 342 -519 882 -853 1503 -930 109 -13 371 -13 480 0
321 40 641 156 900 327 396 261 688 640 834 1083 77 231 106 414 106 660 0
246 -29 429 -106 660 -252 763 -924 1309 -1734 1410 -78 9 -386 12 -455 3z"/>
<path d="M1122 3930 c-15 -14 -22 -33 -22 -59 0 -101 140 -111 156 -11 12 72
-80 120 -134 70z"/>
<path d="M1935 3844 c-140 -19 -193 -29 -280 -51 -184 -46 -374 -131 -540
-241 -122 -81 -164 -120 -172 -160 -6 -33 0 -40 498 -538 454 -455 509 -506
557 -524 67 -25 117 -25 184 0 48 18 103 69 557 524 498 498 504 505 498 538
-8 40 -50 79 -172 160 -209 139 -429 226 -690 274 -77 15 -378 27 -440 18z
m315 -169 c227 -17 499 -113 712 -251 l71 -46 -449 -449 -449 -449 -45 0 -45
0 -449 449 -449 449 71 46 c225 146 492 236 752 255 103 8 128 7 280 -4z"/>
<path d="M765 3230 c-27 -10 -78 -73 -147 -180 -136 -209 -222 -434 -269 -700
-18 -99 -18 -421 0 -520 48 -272 137 -502 279 -715 81 -122 120 -164 160 -172
33 -6 40 0 534 493 284 284 509 516 521 539 17 31 22 57 22 115 0 58 -5 84
-22 115 -31 57 -1013 1035 -1038 1034 -11 0 -29 -4 -40 -9z m935 -1140 l0 -45
-449 -449 -449 -449 -46 71 c-345 533 -345 1211 0 1744 l46 71 449 -449 449
-449 0 -45z"/>
<path d="M754 2476 c-17 -7 -34 -21 -38 -31 -10 -27 -7 -634 4 -655 13 -24 65
-41 93 -31 43 16 52 39 57 142 l5 98 134 -116 c74 -63 145 -119 158 -124 46
-17 103 26 103 78 0 36 -4 41 -125 146 l-61 52 60 30 c167 84 168 310 2 398
-36 19 -60 22 -201 24 -121 3 -168 0 -191 -11z m340 -178 c22 -31 20 -54 -6
-78 -19 -17 -35 -20 -120 -20 l-98 0 0 60 0 60 104 0 c97 0 106 -2 120 -22z"/>
<path d="M2858 2744 c-284 -284 -509 -516 -521 -539 -17 -31 -22 -57 -22 -115
0 -58 5 -84 22 -115 12 -23 237 -255 521 -539 494 -493 501 -499 534 -493 40
8 79 50 160 172 142 213 231 443 279 715 18 99 18 421 0 520 -48 272 -137 502
-279 715 -81 122 -120 164 -160 172 -33 6 -40 0 -534 -493z m568 216 c343
-530 342 -1210 -2 -1742 l-46 -71 -449 449 -449 449 0 45 0 44 447 448 c246
247 449 448 451 448 1 0 23 -31 48 -70z"/>
<path d="M2984 2481 c-53 -23 -54 -32 -54 -361 0 -331 1 -340 56 -360 31 -12
78 5 92 33 7 12 13 64 14 115 l3 93 135 -117 c74 -64 145 -120 157 -125 28
-10 80 7 93 31 17 32 11 77 -12 103 -13 13 -53 50 -90 82 -37 31 -66 61 -63
65 3 5 18 11 33 15 75 16 142 112 142 203 0 91 -43 162 -125 205 -35 19 -59
22 -200 24 -88 2 -170 -1 -181 -6z m328 -178 c24 -21 23 -58 -2 -83 -17 -17
-33 -20 -120 -20 l-100 0 0 60 0 60 102 0 c80 0 105 -3 120 -17z"/>
<path d="M1995 1850 c-43 -17 -116 -85 -554 -524 -498 -498 -504 -505 -498
-538 8 -40 50 -79 172 -160 166 -111 357 -196 540 -241 165 -41 242 -51 417
-51 163 -1 167 0 192 23 32 30 35 78 7 112 -19 23 -25 24 -173 26 -166 3 -256
13 -388 45 -164 40 -344 118 -493 214 l-70 46 449 449 449 449 45 0 45 0 449
-449 450 -449 -80 -50 c-120 -76 -128 -84 -128 -127 0 -43 39 -85 78 -85 34 0
275 156 315 204 6 7 14 27 17 45 7 32 -3 42 -497 537 -454 455 -509 506 -557
524 -66 25 -122 25 -187 0z"/>
<path d="M2545 561 c-29 -12 -44 -33 -51 -69 -5 -26 -1 -36 25 -63 27 -26 37
-30 64 -25 45 9 71 39 71 81 0 57 -58 97 -109 76z"/>
</g>
</svg>
